<mxfile host="app.diagrams.net" modified="2024-03-13T17:41:29.986Z" agent="Mozilla/5.0 (Macintosh; Intel Mac OS X 10.15; rv:123.0) Gecko/20100101 Firefox/123.0" version="24.0.3" etag="AT6-96NNfTIfHrzpt268" type="github">
  <diagram name="Page-1" id="eDQPdWHip5T5oCt15fp7">
    <mxGraphModel>
      <root>
        <mxCell id="0" />
        <mxCell id="1" parent="0" />
      </root>
    </mxGraphModel>
  </diagram>
</mxfile>
